<!DOCTYPE svg PUBLIC "-//W3C//DTD SVG 1.1//EN" "http://www.w3.org/Graphics/SVG/1.1/DTD/svg11.dtd">
<!-- Uploaded to: SVG Repo, www.svgrepo.com, Transformed by: SVG Repo Mixer Tools -->
<svg fill="#8d13b9" height="185px" width="185px" version="1.1" id="Capa_1" xmlns="http://www.w3.org/2000/svg" xmlns:xlink="http://www.w3.org/1999/xlink" viewBox="0 0 466.971 466.971" xml:space="preserve" stroke="#8d13b9">
<g id="SVGRepo_bgCarrier" stroke-width="0"/>
<g id="SVGRepo_tracerCarrier" stroke-linecap="round" stroke-linejoin="round"/>
<g id="SVGRepo_iconCarrier"> <g> <path d="M398.585,68.386C354.485,24.287,295.852,0,233.485,0s-121,24.287-165.099,68.386S0,171.119,0,233.486 s24.287,121,68.386,165.099s102.733,68.386,165.099,68.386s121-24.287,165.1-68.386c44.1-44.1,68.386-102.733,68.386-165.099 S442.685,112.486,398.585,68.386z M104.634,386.252l-10.128-13.927c-6.931-9.53-8.088-22.091-3.016-32.727l9.431-19.775 c5.71-11.972,1.747-26.048-8.918-33.934c-8.463-6.258-11.116-17.902-6.156-27.218c11.877-22.308,20.939-47.148,26.935-73.832 c6.096-27.13,21.176-51.806,42.46-69.481c22.029-18.293,48.704-27.962,77.14-27.962c53.889,0,72.169,28.704,77.106,39.394 c0.784,1.697,2.116,6.425,2.315,7.699c1.079,6.894,1.732,16.021,0.065,20.742c-0.979,2.772,0.327,5.946,3.048,7.059 c0.686,0.281,1.394,0.413,2.088,0.413c2.247,0,4.357-1.388,5.169-3.622c2.469-6.79,1.803-16.795,0.866-23.759 c6.572,1.996,12.237,6.324,15.786,12.267c11.333,18.991,17.323,40.786,17.323,63.028v1.145c0,4.116-0.098,8.254-0.271,12.374l0,0 c-4.253-0.932-8.375-2.412-12.196-4.498c-15.327-8.372-28.42-20.23-38.286-34.695c1.994-1.741,3.548-4.026,4.408-6.708 c0.961-2.998-0.588-6.359-3.61-7.242c-2.924-0.854-5.987,0.834-6.827,3.761c-0.576,2.006-2.716,3.262-4.749,2.79l-38.772-8.999 l-0.268-0.061c-6.852-1.52-13.881-0.082-19.681,4.049c-5.457,3.888-9.032,9.892-10.245,16.482l-1.927,10.475 c-2.706,14.712-16.476,24.957-31.344,23.334l-28.631-3.134c-8.395-0.922-16.811,1.786-23.096,7.422 c-7.75,6.947-11.424,17.601-9.292,28.082c1.347,6.62,5.117,12.501,10.309,16.823l0.326,0.272 c10.421,8.675,13.876,23.18,8.485,35.622l-0.377,0.871c-9.67,22.32-10.789,47.33-3.15,70.421l4.619,13.975 c5.087,15.399,5.504,32.164,1.297,47.797c-17.498-6.792-34.1-15.831-49.464-26.95c2.381-2.732,4.091-6.032,4.924-9.646 C109.782,398.085,108.435,391.477,104.634,386.252z M358.988,366.573c0.521,9.297,4.733,17.718,11.86,23.711l10.852,9.124 c-2.502,2.241-5.043,4.426-7.629,6.542c-15.868-26.824-39.325-48.774-67.102-62.839c17.361-16.236,30.958-38.072,38.924-63.25 c0.574,0.034,1.147,0.058,1.718,0.058c2.985,0,5.92-0.474,8.729-1.37l16.237,39.097c3.398,8.181,1.651,17.618-4.451,24.041 C361.712,348.437,358.467,357.276,358.988,366.573z M233.483,373.471c16.146,0,31.556-3.874,45.637-10.877 c-1.792,23.657-21.603,42.361-45.715,42.361c-24.091,0-43.888-18.672-45.71-42.299C201.995,369.75,217.465,373.471,233.483,373.471 z M233.483,362.471c-29.117,0-56.354-13.842-76.979-39.039c1.019-3.48,2.239-6.915,3.696-10.278l0.376-0.869 c7.28-16.804,2.537-36.726-11.536-48.445l-0.731-0.608c-4.16-3.464-6.545-8.555-6.545-13.967c0-5.32,2.272-10.409,6.233-13.96 c3.961-3.552,9.27-5.254,14.556-4.678l28.632,3.134c20.574,2.248,39.616-11.928,43.359-32.279l2.021-10.989 c0.706-3.835,2.884-7.134,6.133-9.288c3.142-2.082,6.871-2.787,10.491-1.982l38.94,9.037c0.837,0.194,1.673,0.3,2.504,0.351 c11.91,18.428,28.48,33.218,48.112,42.939C341.253,304.057,292.813,362.471,233.483,362.471z M153.674,336.907 c2,2.152,4.044,4.224,6.14,6.196c-2.307,1.169-4.59,2.388-6.84,3.667C153.024,343.473,153.252,340.18,153.674,336.907z M365.379,253.331c-0.643,4.763-3.102,8.989-6.924,11.902c-2.793,2.128-6.072,3.357-9.492,3.62 c2.603-10.753,4.207-22.016,4.674-33.636c3.298,1.108,6.16,3.014,8.268,5.573C364.809,244.319,366.011,248.656,365.379,253.331z M163.25,444.709c5.015-17.944,4.624-37.261-1.229-54.981l-4.621-13.979c-1.799-5.438-3.035-10.996-3.744-16.597 c4.928-3.044,10.048-5.814,15.287-8.268c2.506,1.934,5.066,3.749,7.675,5.445c-0.046,0.927-0.073,1.853-0.073,2.773 c0,31.349,25.508,56.853,56.861,56.853s56.862-25.504,56.862-56.853c0-0.952-0.026-1.897-0.072-2.831 c2.6-1.687,5.143-3.484,7.625-5.39c28.166,13.182,51.901,34.962,67.488,61.883c-37.977,28.048-83.733,43.207-131.822,43.207 C209.249,455.971,185.605,452.119,163.25,444.709z M390.807,390.806c-0.343,0.343-0.694,0.673-1.039,1.014l-11.841-9.955 c-4.782-4.02-7.607-9.669-7.957-15.906c-0.349-6.237,1.828-12.167,6.13-16.696c9.095-9.574,11.7-23.64,6.635-35.835l-16.689-40.186 c5.629-4.656,9.25-11.156,10.234-18.437c1.037-7.677-1.053-15.136-5.885-21.005c-1.145-1.39-2.419-2.66-3.803-3.802 c0.362-6.044,0.556-12.163,0.556-18.235v-1.145c0-24.227-6.528-47.971-18.878-68.667c-6.059-10.146-16.492-16.939-28.229-18.512 c-2.445-5.686-8.027-15.92-19.319-25.452c-16.97-14.326-39.963-21.59-68.34-21.59c-31.034,0-60.139,10.547-84.167,30.5 c-23.144,19.219-39.54,46.043-46.166,75.532c-5.78,25.722-14.498,49.634-25.912,71.073c-7.584,14.246-3.417,32.087,9.693,41.499 c6.363,4.569,8.535,13.017,5.162,20.087l-9.432,19.776c-6.816,14.292-5.265,31.125,4.048,43.931l10.129,13.927 c1.926,2.648,2.609,5.998,1.874,9.189c-0.478,2.073-1.529,3.936-2.995,5.415c-6.401-5.133-12.567-10.634-18.453-16.52 C34.143,348.784,11,292.913,11,233.486c0-59.428,23.143-115.299,65.165-157.321S174.058,11,233.485,11 c59.428,0,115.299,23.143,157.321,65.165s65.165,97.893,65.165,157.321C455.971,292.913,432.829,348.784,390.807,390.806z"/> <path d="M243.845,319.238c-2.791,2.679-6.471,4.155-10.364,4.155c-3.887,0-7.565-1.476-10.355-4.155 c-2.19-2.102-5.672-2.033-7.777,0.159c-2.104,2.191-2.032,5.673,0.159,7.777c4.85,4.655,11.233,7.219,17.974,7.219 c6.746,0,13.132-2.564,17.982-7.219c2.191-2.104,2.262-5.585,0.159-7.777C249.519,317.206,246.037,317.135,243.845,319.238z"/> <path d="M192.835,250.498c-5.345-5.736-13.628-7.831-21.121-5.196c-2.924,1.028-6.223,0.437-8.609-1.542 c-2.337-1.939-5.805-1.617-7.745,0.722c-1.939,2.338-1.616,5.805,0.722,7.745c5.279,4.378,12.554,5.716,19.043,3.527 c-0.602,2.26-0.489,4.727,0.503,7.043c2.355,5.499,8.722,8.047,14.221,5.692c5.499-2.355,8.047-8.722,5.692-14.22 C194.903,252.779,193.964,251.515,192.835,250.498z"/> <path d="M310.889,252.226c2.338-1.939,2.661-5.407,0.722-7.745c-1.94-2.339-5.407-2.662-7.745-0.722 c-2.386,1.979-5.684,2.57-8.609,1.542c-7.493-2.634-15.776-0.539-21.122,5.197c-1.129,1.018-2.068,2.281-2.706,3.77 c-2.355,5.499,0.193,11.865,5.692,14.22c5.499,2.355,11.866-0.193,14.221-5.692c0.992-2.316,1.105-4.784,0.503-7.043 C298.335,257.941,305.609,256.605,310.889,252.226z"/> </g> </g>
</svg>